<svg width="118" height="118" viewBox="0 0 118 118" fill="none" xmlns="http://www.w3.org/2000/svg">
<mask id="path-2-inside-1_19_587" fill="white">
<path fill-rule="evenodd" clip-rule="evenodd" d="M13.7055 73.8256C11.4718 73.4827 9 74.9892 9 77.2491V106C9 107.657 10.3431 109 12 109H106C107.657 109 109 107.657 109 106V12C109 10.3431 107.657 9 106 9H12C10.3431 9 9 10.3431 9 12V40.7509C9 43.0108 11.4718 44.5173 13.7055 44.1744C14.4536 44.0596 15.2198 44 16 44C24.2843 44 31 50.7157 31 59C31 67.2843 24.2843 74 16 74C15.2198 74 14.4536 73.9404 13.7055 73.8256Z"/>
</mask>
<path fill-rule="evenodd" clip-rule="evenodd" d="M13.7055 73.8256C11.4718 73.4827 9 74.9892 9 77.2491V106C9 107.657 10.3431 109 12 109H106C107.657 109 109 107.657 109 106V12C109 10.3431 107.657 9 106 9H12C10.3431 9 9 10.3431 9 12V40.7509C9 43.0108 11.4718 44.5173 13.7055 44.1744C14.4536 44.0596 15.2198 44 16 44C24.2843 44 31 50.7157 31 59C31 67.2843 24.2843 74 16 74C15.2198 74 14.4536 73.9404 13.7055 73.8256Z" fill="#1e5aa8"/>
<path d="M13.7055 44.1744L13.5538 43.186L13.7055 44.1744ZM10 106V77.2491H8V106H10ZM106 108H12V110H106V108ZM108 12V106H110V12H108ZM12 10H106V8H12V10ZM10 40.7509V12H8V40.7509H10ZM13.8572 45.1628C14.5553 45.0557 15.2708 45 16 45V43C15.1689 43 14.3519 43.0635 13.5538 43.186L13.8572 45.1628ZM16 45C23.732 45 30 51.268 30 59H32C32 50.1634 24.8366 43 16 43V45ZM30 59C30 66.732 23.732 73 16 73V75C24.8366 75 32 67.8366 32 59H30ZM16 73C15.2708 73 14.5553 72.9443 13.8572 72.8372L13.5538 74.814C14.3519 74.9365 15.1689 75 16 75V73ZM8 40.7509C8 42.2778 8.84101 43.502 9.94894 44.263C11.0485 45.0183 12.4803 45.3742 13.8572 45.1628L13.5538 43.186C12.697 43.3175 11.776 43.0916 11.0813 42.6144C10.3949 42.143 10 41.484 10 40.7509H8ZM12 8C9.79086 8 8 9.79086 8 12H10C10 10.8954 10.8954 10 12 10V8ZM110 12C110 9.79086 108.209 8 106 8V10C107.105 10 108 10.8954 108 12H110ZM106 110C108.209 110 110 108.209 110 106H108C108 107.105 107.105 108 106 108V110ZM10 77.2491C10 76.516 10.3949 75.857 11.0813 75.3856C11.776 74.9084 12.697 74.6825 13.5538 74.814L13.8572 72.8372C12.4803 72.6258 11.0485 72.9817 9.94894 73.737C8.84101 74.498 8 75.7222 8 77.2491H10ZM8 106C8 108.209 9.79086 110 12 110V108C10.8954 108 10 107.105 10 106H8Z" fill="#10315b" mask="url(#path-2-inside-1_19_587)"/>
<path d="M40 40V71.3026L46.2605 65.042H52.521V46.2605H71.3026V40H40ZM58.7815 52.521V77.5631H83.8236L90.0841 83.8236V52.521H58.7815Z" fill="white"/>
</svg>
