<svg width="131" height="118" viewBox="0 0 131 118" fill="none" xmlns="http://www.w3.org/2000/svg">
<mask id="path-2-inside-1_17_35" fill="white">
<path fill-rule="evenodd" clip-rule="evenodd" d="M12 9C10.3431 9 9 10.3431 9 12V106C9 107.657 10.3431 109 12 109H106C107.657 109 109 107.657 109 106V77.2491C109 74.9892 111.472 73.4827 113.706 73.8256C114.454 73.9404 115.22 74 116 74C124.284 74 131 67.2843 131 59C131 50.7157 124.284 44 116 44C115.22 44 114.454 44.0596 113.706 44.1744C111.472 44.5173 109 43.0108 109 40.751V12C109 10.3431 107.657 9 106 9H12Z"/>
</mask>
<path fill-rule="evenodd" clip-rule="evenodd" d="M12 9C10.3431 9 9 10.3431 9 12V106C9 107.657 10.3431 109 12 109H106C107.657 109 109 107.657 109 106V77.2491C109 74.9892 111.472 73.4827 113.706 73.8256C114.454 73.9404 115.22 74 116 74C124.284 74 131 67.2843 131 59C131 50.7157 124.284 44 116 44C115.22 44 114.454 44.0596 113.706 44.1744C111.472 44.5173 109 43.0108 109 40.751V12C109 10.3431 107.657 9 106 9H12Z" fill="red"/>
<path d="M113.706 73.8256L113.554 74.814L113.706 73.8256ZM10 106V12H8V106H10ZM106 108H12V110H106V108ZM108 77.2491V106H110V77.2491H108ZM116 73C115.271 73 114.555 72.9443 113.857 72.8372L113.554 74.814C114.352 74.9365 115.169 75 116 75V73ZM130 59C130 66.732 123.732 73 116 73V75C124.837 75 132 67.8366 132 59H130ZM116 45C123.732 45 130 51.268 130 59H132C132 50.1634 124.837 43 116 43V45ZM113.857 45.1628C114.555 45.0557 115.271 45 116 45V43C115.169 43 114.352 43.0635 113.554 43.186L113.857 45.1628ZM108 12V40.751H110V12H108ZM12 10H106V8H12V10ZM110 12C110 9.79086 108.209 8 106 8V10C107.105 10 108 10.8954 108 12H110ZM110 77.2491C110 76.516 110.395 75.857 111.081 75.3856C111.776 74.9084 112.697 74.6825 113.554 74.814L113.857 72.8372C112.48 72.6258 111.049 72.9817 109.949 73.737C108.841 74.498 108 75.7222 108 77.2491H110ZM113.554 43.186C112.697 43.3175 111.776 43.0916 111.081 42.6144C110.395 42.143 110 41.484 110 40.751H108C108 42.2778 108.841 43.502 109.949 44.263C111.049 45.0183 112.48 45.3742 113.857 45.1628L113.554 43.186ZM106 110C108.209 110 110 108.209 110 106H108C108 107.105 107.105 108 106 108V110ZM10 12C10 10.8954 10.8954 10 12 10V8C9.79086 8 8 9.79086 8 12H10ZM8 106C8 108.209 9.79086 110 12 110V108C10.8954 108 10 107.105 10 106H8Z" fill="crimson" mask="url(#path-2-inside-1_17_35)"/>
<path d="M54.8683 73.6499V63.2157H63.2156V73.6499C63.2156 74.7977 64.1547 75.7368 65.3025 75.7368H71.563C72.7107 75.7368 73.6498 74.7977 73.6498 73.6499V59.0421H77.1974C78.1574 59.0421 78.6165 57.8526 77.8861 57.2265L60.4401 41.5126C59.6471 40.8031 58.4368 40.8031 57.6438 41.5126L40.1978 57.2265C39.4883 57.8526 39.9265 59.0421 40.8865 59.0421H44.4341V73.6499C44.4341 74.7977 45.3732 75.7368 46.5209 75.7368H52.7814C53.9292 75.7368 54.8683 74.7977 54.8683 73.6499Z" fill="white"/>
</svg>
