<svg width="118" height="118" viewBox="0 0 118 118" fill="none" xmlns="http://www.w3.org/2000/svg">
<mask id="path-2-inside-1_19_586" fill="white">
<path fill-rule="evenodd" clip-rule="evenodd" d="M13.7055 44.1744C11.4718 44.5173 9 43.0108 9 40.7509V12C9 10.3431 10.3431 9 12 9H106C107.657 9 109 10.3431 109 12V40.7509C109 43.0108 106.528 44.5173 104.294 44.1744C103.546 44.0596 102.78 44 102 44C93.7157 44 87 50.7157 87 59C87 67.2843 93.7157 74 102 74C102.78 74 103.546 73.9404 104.294 73.8256C106.528 73.4827 109 74.9892 109 77.249V106C109 107.657 107.657 109 106 109H12C10.3431 109 9 107.657 9 106V77.2491C9 74.9892 11.4718 73.4827 13.7055 73.8256C14.4536 73.9404 15.2198 74 16 74C24.2843 74 31 67.2843 31 59C31 50.7157 24.2843 44 16 44C15.2198 44 14.4536 44.0596 13.7055 44.1744Z"/>
</mask>
<path fill-rule="evenodd" clip-rule="evenodd" d="M13.7055 44.1744C11.4718 44.5173 9 43.0108 9 40.7509V12C9 10.3431 10.3431 9 12 9H106C107.657 9 109 10.3431 109 12V40.7509C109 43.0108 106.528 44.5173 104.294 44.1744C103.546 44.0596 102.78 44 102 44C93.7157 44 87 50.7157 87 59C87 67.2843 93.7157 74 102 74C102.78 74 103.546 73.9404 104.294 73.8256C106.528 73.4827 109 74.9892 109 77.249V106C109 107.657 107.657 109 106 109H12C10.3431 109 9 107.657 9 106V77.2491C9 74.9892 11.4718 73.4827 13.7055 73.8256C14.4536 73.9404 15.2198 74 16 74C24.2843 74 31 67.2843 31 59C31 50.7157 24.2843 44 16 44C15.2198 44 14.4536 44.0596 13.7055 44.1744Z" fill="#FFED00"/>
<path d="M13.7055 44.1744L13.5538 43.186L13.7055 44.1744ZM8 12V40.7509H10V12H8ZM106 8H12V10H106V8ZM110 40.7509V12H108V40.7509H110ZM102 45C102.729 45 103.445 45.0557 104.143 45.1628L104.446 43.186C103.648 43.0635 102.831 43 102 43V45ZM88 59C88 51.268 94.268 45 102 45V43C93.1634 43 86 50.1634 86 59H88ZM102 73C94.268 73 88 66.732 88 59H86C86 67.8366 93.1634 75 102 75V73ZM104.143 72.8372C103.445 72.9443 102.729 73 102 73V75C102.831 75 103.648 74.9365 104.446 74.814L104.143 72.8372ZM110 106V77.249H108V106H110ZM12 110H106V108H12V110ZM8 77.2491V106H10V77.2491H8ZM16 73C15.2708 73 14.5553 72.9443 13.8572 72.8372L13.5538 74.814C14.3519 74.9365 15.1689 75 16 75V73ZM30 59C30 66.732 23.732 73 16 73V75C24.8366 75 32 67.8366 32 59H30ZM16 45C23.732 45 30 51.268 30 59H32C32 50.1634 24.8366 43 16 43V45ZM13.8572 45.1628C14.5553 45.0557 15.2708 45 16 45V43C15.1689 43 14.3519 43.0635 13.5538 43.186L13.8572 45.1628ZM10 77.2491C10 76.516 10.3949 75.857 11.0813 75.3856C11.776 74.9084 12.697 74.6825 13.5538 74.814L13.8572 72.8372C12.4803 72.6258 11.0485 72.9817 9.94894 73.737C8.84101 74.498 8 75.7222 8 77.2491H10ZM12 108C10.8954 108 10 107.105 10 106H8C8 108.209 9.79086 110 12 110V108ZM108 106C108 107.105 107.105 108 106 108V110C108.209 110 110 108.209 110 106H108ZM108 40.7509C108 41.484 107.605 42.143 106.919 42.6144C106.224 43.0916 105.303 43.3175 104.446 43.186L104.143 45.1628C105.52 45.3742 106.951 45.0183 108.051 44.263C109.159 43.502 110 42.2778 110 40.7509H108ZM104.446 74.814C105.303 74.6825 106.224 74.9084 106.919 75.3856C107.605 75.857 108 76.516 108 77.249H110C110 75.7222 109.159 74.498 108.051 73.737C106.951 72.9817 105.52 72.6258 104.143 72.8372L104.446 74.814ZM106 10C107.105 10 108 10.8954 108 12H110C110 9.79086 108.209 8 106 8V10ZM8 40.7509C8 42.2778 8.84101 43.502 9.94894 44.263C11.0485 45.0183 12.4803 45.3742 13.8572 45.1628L13.5538 43.186C12.697 43.3175 11.776 43.0916 11.0813 42.6144C10.3949 42.143 10 41.484 10 40.7509H8ZM10 12C10 10.8954 10.8954 10 12 10V8C9.79086 8 8 9.79086 8 12H10Z" fill="#FFD700" mask="url(#path-2-inside-1_19_586)"/>
<path d="M42 40V77.8057H75.08V58.9028H56.1771V40H42ZM60.9029 40V54.1771H75.08L60.9029 40Z" fill="white"/>
</svg>
