<svg width="144" height="118" viewBox="0 0 144 118" fill="none" xmlns="http://www.w3.org/2000/svg">
<mask id="path-2-inside-1_19_585" fill="white">
<path fill-rule="evenodd" clip-rule="evenodd" d="M17.2945 44.1744C19.5282 44.5173 22 43.0108 22 40.7509V12C22 10.3431 23.3431 9 25 9H119C120.657 9 122 10.3431 122 12V40.7509C122 43.0108 124.472 44.5173 126.706 44.1744C127.454 44.0596 128.22 44 129 44C137.284 44 144 50.7157 144 59C144 67.2843 137.284 74 129 74C128.22 74 127.454 73.9404 126.706 73.8256C124.472 73.4827 122 74.9892 122 77.249V106C122 107.657 120.657 109 119 109H25C23.3431 109 22 107.657 22 106V77.2491C22 74.9892 19.5282 73.4827 17.2945 73.8256C16.5464 73.9404 15.7802 74 15 74C6.71573 74 1.90735e-06 67.2843 0 59C0 50.7157 6.71573 44 15 44C15.7802 44 16.5464 44.0596 17.2945 44.1744Z"/>
</mask>
<path fill-rule="evenodd" clip-rule="evenodd" d="M17.2945 44.1744C19.5282 44.5173 22 43.0108 22 40.7509V12C22 10.3431 23.3431 9 25 9H119C120.657 9 122 10.3431 122 12V40.7509C122 43.0108 124.472 44.5173 126.706 44.1744C127.454 44.0596 128.22 44 129 44C137.284 44 144 50.7157 144 59C144 67.2843 137.284 74 129 74C128.22 74 127.454 73.9404 126.706 73.8256C124.472 73.4827 122 74.9892 122 77.249V106C122 107.657 120.657 109 119 109H25C23.3431 109 22 107.657 22 106V77.2491C22 74.9892 19.5282 73.4827 17.2945 73.8256C16.5464 73.9404 15.7802 74 15 74C6.71573 74 1.90735e-06 67.2843 0 59C0 50.7157 6.71573 44 15 44C15.7802 44 16.5464 44.0596 17.2945 44.1744Z" fill="#007726"/>
<path d="M0 59L-1 59L-1 59L0 59ZM17.2945 73.8256L17.1428 72.8372L17.2945 73.8256ZM126.706 44.1744L126.554 43.186L126.706 44.1744ZM21 12V40.7509H23V12H21ZM119 8H25V10H119V8ZM123 40.7509V12H121V40.7509H123ZM129 43C128.169 43 127.352 43.0635 126.554 43.186L126.857 45.1628C127.555 45.0557 128.271 45 129 45V43ZM145 59C145 50.1634 137.837 43 129 43V45C136.732 45 143 51.268 143 59H145ZM129 75C137.837 75 145 67.8366 145 59H143C143 66.732 136.732 73 129 73V75ZM126.554 74.814C127.352 74.9365 128.169 75 129 75V73C128.271 73 127.555 72.9443 126.857 72.8372L126.554 74.814ZM123 106V77.249H121V106H123ZM25 110H119V108H25V110ZM21 77.2491V106H23V77.2491H21ZM17.1428 72.8372C16.4447 72.9443 15.7292 73 15 73V75C15.8311 75 16.6481 74.9365 17.4462 74.814L17.1428 72.8372ZM15 73C7.26802 73 1 66.732 1 59L-1 59C-0.999998 67.8366 6.16345 75 15 75V73ZM1 59C1 51.268 7.26801 45 15 45V43C6.16344 43 -1 50.1634 -1 59H1ZM15 45C15.7292 45 16.4447 45.0557 17.1428 45.1628L17.4462 43.186C16.6481 43.0635 15.8311 43 15 43V45ZM23 77.2491C23 75.7222 22.159 74.498 21.0511 73.737C19.9515 72.9817 18.5197 72.6258 17.1428 72.8372L17.4462 74.814C18.303 74.6825 19.224 74.9084 19.9187 75.3856C20.6051 75.857 21 76.516 21 77.2491H23ZM25 108C23.8954 108 23 107.105 23 106H21C21 108.209 22.7909 110 25 110V108ZM121 106C121 107.105 120.105 108 119 108V110C121.209 110 123 108.209 123 106H121ZM121 40.7509C121 42.2778 121.841 43.502 122.949 44.263C124.049 45.0183 125.48 45.3742 126.857 45.1628L126.554 43.186C125.697 43.3175 124.776 43.0916 124.081 42.6144C123.395 42.143 123 41.484 123 40.7509H121ZM126.857 72.8372C125.48 72.6258 124.049 72.9817 122.949 73.737C121.841 74.498 121 75.7222 121 77.249H123C123 76.516 123.395 75.857 124.081 75.3856C124.776 74.9084 125.697 74.6825 126.554 74.814L126.857 72.8372ZM119 10C120.105 10 121 10.8954 121 12H123C123 9.79086 121.209 8 119 8V10ZM21 40.7509C21 41.484 20.6051 42.1429 19.9187 42.6144C19.224 43.0916 18.303 43.3175 17.4462 43.186L17.1428 45.1628C18.5197 45.3742 19.9515 45.0182 21.0511 44.263C22.159 43.502 23 42.2778 23 40.7509H21ZM23 12C23 10.8954 23.8954 10 25 10V8C22.7909 8 21 9.79086 21 12H23Z" fill="#005e1e" mask="url(#path-2-inside-1_19_585)"/>
<path d="M66.7986 31C63.9119 31 61.5499 33.5729 61.5499 36.7175V42.435H51.5249C51.2099 42.435 51.0525 42.6637 51.0525 42.9496V56.7288C51.0525 58.3297 52.2072 59.5875 53.6768 59.5875H90.4179C91.8875 59.5875 93.0423 58.3297 93.0423 56.7288V42.9496C93.0423 42.6065 92.8323 42.435 92.5699 42.435H82.5448V36.7175C82.5448 33.5729 80.1829 31 77.2961 31H66.7986ZM66.7986 36.7175H77.2961V42.435H66.7986V36.7175ZM51.0525 64.7904V76.2254C51.0525 76.5113 51.2624 76.74 51.5249 76.74H92.5174C92.7798 76.74 92.9898 76.5113 92.9898 76.2254V64.7904C92.15 65.1335 91.3102 65.305 90.3654 65.305H53.6244C52.6796 65.305 51.8398 65.0763 51 64.7904H51.0525Z" fill="white"/>
</svg>
